<svg xmlns="http://www.w3.org/2000/svg" xmlns:xlink="http://www.w3.org/1999/xlink" version="1.1"
    x="0px" y="0px" viewBox="0 0 64 80" style="enable-background:new 0 0 64 64;"
    xml:space="preserve"><g><path d="M30.5009766,4c2.2060547,0,4,1.7944336,4,4c0,2.1484375-2.6826172,4-4,4s-4-1.8515625-4-4   C26.5009766,5.7944336,28.2949219,4,30.5009766,4z"/><path d="M47.6972656,5.8271484c1.0957031-1.0961914,2.8798828-1.0957031,3.9755859,0.0004883   C52.2060547,6.3603516,52.5,7.0678711,52.5,7.8198242c0,0.7382813-0.2958984,1.4438477-0.8271484,1.9829102L40.5,20.984375V19   c0-0.2062988-0.0210571-0.4078369-0.0609131-0.6025391c-0.0206909-0.1011353-0.0598145-0.1945801-0.0904541-0.291748   c-0.0283203-0.0900269-0.0475464-0.18396-0.0839844-0.2700806c-0.0444336-0.1052246-0.1061401-0.2001343-0.1618652-0.2988281   c-0.0391846-0.0693359-0.0696411-0.1439819-0.1140137-0.2097778c-0.0623169-0.0924072-0.1395874-0.1726074-0.2115479-0.2573242   c-0.0522461-0.0615845-0.0971069-0.1295166-0.1540527-0.1866455c-0.0725098-0.0727539-0.1573486-0.1316528-0.2369995-0.1967163   c-0.0690918-0.0563965-0.1320801-0.119873-0.2060547-0.170105c-0.0790405-0.0535889-0.1679077-0.092041-0.2520752-0.1381226   c-0.0853882-0.0467529-0.1661377-0.1008301-0.2562866-0.1392822c-0.083313-0.0354614-0.1740723-0.0544434-0.2610474-0.0823975   c-0.0998535-0.0321045-0.1964722-0.0718384-0.3005981-0.0934448c-0.0872192-0.0180664-0.1797485-0.0182495-0.2695313-0.0285645   C37.7324219,16.0219727,37.6268921,16.0005493,37.515625,16L47.6972656,5.8271484z M15.1679688,28.1601563l6.1816406-9.1430664   C21.7773438,18.3803711,22.4912109,18,23.2597656,18h11.8398438H37.5c0.5517578,0,1,0.4487305,1,1v4.3999023V38h-16v-3h2.4501953   c2.2939453,0,4.3378906-1.4873047,4.96875-3.6152344l0.4599609-1.550293c0.265625-0.8969727,0.0957031-1.84375-0.4667969-2.5976563   C29.3251953,26.4506836,28.4169922,26,27.4199219,26H21.5c-0.5527344,0-1,0.4477539-1,1s0.4472656,1,1,1h5.9199219   c0.359375,0,0.6835938,0.1577148,0.8886719,0.4326172c0.1074219,0.1430664,0.2685547,0.4414063,0.1523438,0.8325195   l-0.4599609,1.5507813C27.6201172,32.1020508,26.3652344,33,24.9501953,33H21.5h-3.8203125   c-1.2519531,0-2.3564453-0.668457-2.8818359-1.7446289C14.3056641,30.2475586,14.4296875,29.1113281,15.1679688,28.1601563z    M9.2167969,44.46875c2.3509521-2.5643921,4.3629761-5.9494019,6.0084229-10.0726318   C15.9627686,34.7796631,16.7962036,35,17.6796875,35H20.5v4v6.8855591   C18.5894165,46.0620117,13.7182007,46.2714844,9.2167969,44.46875z M41.0927734,52.9931641l-5.1123047,5.1123047   c-0.3417969,0.34375-0.8037109,0.5292969-1.3037109,0.4882813c-0.4912109-0.0341797-0.9414063-0.2792969-1.2373047-0.6738281   c-0.2226563-0.296875-0.3398438-0.6464844-0.3398438-1.0097656c0-0.3339844,0.0986328-0.6533203,0.2929688-0.9365234   l2.9404297-4.4199219c0.2226563-0.3359375,0.2226563-0.7724609-0.0009766-1.1083984l-4-6   c-0.2158203-0.3242188-0.5986328-0.4931641-0.9863281-0.4335938c-0.3847656,0.0605469-0.7001953,0.3388672-0.8066406,0.7128906   l-4.0205078,14.0517578C26.3105469,59.5078125,25.6601563,60,24.9003906,60h-0.7099609   C23.2587891,60,22.5,59.2412109,22.5,58.3095703V40h16.2611084l3.0748291,9.9980469   C42.1679688,51.0625,41.8847656,52.2089844,41.0927734,52.9931641z M42.6542969,45.7900391   c-0.0067749-0.0009766-0.0130005,0.0018921-0.0197754,0.0010376L40.5,38.848999V23.8137207l4.2120972-4.215271   c0.6755371,4.3901978,3.1814575,17.3376465,10.071106,24.8703003   C49.0771484,46.7490234,42.7226563,45.8007813,42.6542969,45.7900391z"/></g><text x="0" y="79" fill="#000000" font-size="5px" font-weight="bold" font-family="'Helvetica Neue', Helvetica, Arial-Unicode, Arial, Sans-serif">Created by Iconiqu</text><text x="0" y="84" fill="#000000" font-size="5px" font-weight="bold" font-family="'Helvetica Neue', Helvetica, Arial-Unicode, Arial, Sans-serif">from the Noun Project</text></svg>