<svg width="300" height="300" viewBox="0 0 300 300" fill="none" xmlns="http://www.w3.org/2000/svg">
    <path d="M206 5C206 5 178 19 150 19C122 19 94 5 94 5L150 140L206 5Z"
        fill="url(#paint0_radial_4_2)" stroke="#870200" stroke-width="2" />
    <path d="M87 8C87 8 77 38 57 58C38 77 8 87 8 87L143 143L87 8Z" fill="url(#paint1_radial_4_2)"
        stroke="#BDBDBD" stroke-width="2" />
    <path d="M295 206C295 206 281 178 281 150C281 122 295 94 295 94L160 150L295 206Z"
        fill="url(#paint2_radial_4_2)" stroke="#870200" stroke-width="2" />
    <path d="M292 87C292 87 262 77 242 57C223 38 213 8 213 8L157 143L292 87Z"
        fill="url(#paint3_radial_4_2)" stroke="#BDBDBD" stroke-width="2" />
    <path d="M94 295C94 295 122 281 150 281C178 281 206 295 206 295L150 160L94 295Z"
        fill="url(#paint4_radial_4_2)" stroke="#870200" stroke-width="2" />
    <path d="M213 292C213 292 223 262 243 242C262 223 292 213 292 213L157 157L213 292Z"
        fill="url(#paint5_radial_4_2)" stroke="#BDBDBD" stroke-width="2" />
    <path d="M5 94C5 94 19 122 19 150C19 178 5 206 5 206L140 150L5 94Z"
        fill="url(#paint6_radial_4_2)" stroke="#870200" stroke-width="2" />
    <path d="M8 213C8 213 38 223 58 243C77 262 87 292 87 292L143 157L8 213Z"
        fill="url(#paint7_radial_4_2)" stroke="#BDBDBD" stroke-width="2" />
    <defs>
        <radialGradient id="paint0_radial_4_2" cx="0" cy="0" r="1" gradientUnits="userSpaceOnUse"
            gradientTransform="translate(150 150) scale(150 150)">
            <stop offset="0.3" stop-color="#CC0000" />
            <stop offset="0.7" stop-color="#AA1111" />
        </radialGradient>
        <radialGradient id="paint1_radial_4_2" cx="0" cy="0" r="1" gradientUnits="userSpaceOnUse"
            gradientTransform="translate(150 150) scale(150)">
            <stop offset="0.3" stop-color="#DDDDDD" />
            <stop offset="0.6" stop-color="white" />
            <stop offset="0.9" stop-color="#DDDDDD" />
        </radialGradient>
        <radialGradient id="paint2_radial_4_2" cx="0" cy="0" r="1" gradientUnits="userSpaceOnUse"
            gradientTransform="translate(150 150) rotate(90) scale(150 150)">
            <stop offset="0.3" stop-color="#CC0000" />
            <stop offset="0.7" stop-color="#AA1111" />
        </radialGradient>
        <radialGradient id="paint3_radial_4_2" cx="0" cy="0" r="1" gradientUnits="userSpaceOnUse"
            gradientTransform="translate(150 150) rotate(90) scale(150)">
            <stop offset="0.3" stop-color="#DDDDDD" />
            <stop offset="0.6" stop-color="white" />
            <stop offset="0.9" stop-color="#DDDDDD" />
        </radialGradient>
        <radialGradient id="paint4_radial_4_2" cx="0" cy="0" r="1" gradientUnits="userSpaceOnUse"
            gradientTransform="translate(150 150) rotate(180) scale(150 150)">
            <stop offset="0.3" stop-color="#CC0000" />
            <stop offset="0.7" stop-color="#AA1111" />
        </radialGradient>
        <radialGradient id="paint5_radial_4_2" cx="0" cy="0" r="1" gradientUnits="userSpaceOnUse"
            gradientTransform="translate(150 150) rotate(180) scale(150)">
            <stop offset="0.3" stop-color="#DDDDDD" />
            <stop offset="0.6" stop-color="white" />
            <stop offset="0.9" stop-color="#DDDDDD" />
        </radialGradient>
        <radialGradient id="paint6_radial_4_2" cx="0" cy="0" r="1" gradientUnits="userSpaceOnUse"
            gradientTransform="translate(150 150) rotate(-90) scale(150 150)">
            <stop offset="0.3" stop-color="#CC0000" />
            <stop offset="0.7" stop-color="#AA1111" />
        </radialGradient>
        <radialGradient id="paint7_radial_4_2" cx="0" cy="0" r="1" gradientUnits="userSpaceOnUse"
            gradientTransform="translate(150 150) rotate(-90) scale(150)">
            <stop offset="0.3" stop-color="#DDDDDD" />
            <stop offset="0.6" stop-color="white" />
            <stop offset="0.9" stop-color="#DDDDDD" />
        </radialGradient>
    </defs>
</svg>