<svg xmlns="http://www.w3.org/2000/svg">
  <defs>
    <symbol id="icon-location" viewBox="-5.0 -10.0 110.0 135.0">
      <path
        d="m67.664 60.707 9.293-12.207-1.8438-3.8828-12.254-3.5742zm-40.812-7.5859 0.41406-9.1992-2.3789 0.69531-2.957 6.2188zm28.414 3.4258 3.6719-14.535-8.5273 2.8711v9.8086l4.8555 1.8594zm-10.074-13.617c0.011719-0.03125 0.027344-0.0625 0.046875-0.089844 2.082-4.0586 4.5117-9.2891 4.5117-11.594 0-3.9102-3.1719-7.082-7.082-7.082-1.957 0-3.7266 0.79297-5.0078 2.0742s-2.0742 3.0508-2.0742 5.0078c0 3.5 5.5977 13.734 7.082 16.387 0.5-0.89062 1.4609-2.6406 2.5234-4.6992zm-6.8867-1.8477c1.9375 3.9766 3.957 7.5078 4.0039 7.5859 0.035156 0.0625 0.089844 0.12109 0.15625 0.16016 0.19922 0.11328 0.44922 0.042969 0.5625-0.15625 0.007812-0.015625 1.2656-2.2109 2.7539-5.0938l3.8008 1.3008v9.6719l-15.316 1.7266 3.7344-15.293 0.30078 0.10156zm6.6211-11.875c0.56641 0.56641 0.91797 1.3516 0.91797 2.2188 0 1.7344-1.4062 3.1367-3.1367 3.1367-1.7344 0-3.1367-1.4062-3.1367-3.1367 0-0.86719 0.35156-1.6523 0.91797-2.2188 0.56641-0.56641 1.3516-0.91797 2.2188-0.91797 0.86719 0 1.6523 0.35156 2.2188 0.91797zm-2.2188-2.2422c1.2305 0 2.3477 0.5 3.1562 1.3086 0.80859 0.80859 1.3086 1.9219 1.3086 3.1562 0 2.4648-2 4.4609-4.4609 4.4609-2.4648 0-4.4609-1.9961-4.4609-4.4609 0-1.2305 0.5-2.3477 1.3086-3.1562 0.80859-0.80859 1.9219-1.3086 3.1562-1.3086zm6.8789 31.086-9.1758 1.1055-3.9688 13.469 13.148 3.2109v-17.789zm18.23 6.7656 1.5625 6.3906-18.965 4.6328v-17.641zm5.4609-6.2383 12.348 8.5352c0.070312 0.046875 0.14453 0.082031 0.22266 0.097657l3.9727 8.3594-19.559-4.2109-1.6484-6.7422c0.003907-0.007813 0.011719-0.015626 0.015625-0.023438l4.6406-6.0195zm-40.73 1.2695-12.117-5.8477-10.25 21.57 19.559-4.2109 2.8125-11.512zm0.40234 11.926-2.3281-0.57031 2.7344-11.195 3.1719-0.38281-3.582 12.148zm5.1211-12.703-3.8359 13.016 0.92188 0.22656 4.1016-13.91c0.0625-0.26562 0.28125-0.47656 0.56641-0.50781l9.7656-1.1797v-0.83984l-15.652 1.7656-0.24219 0.99219 3.6797-0.44531c0.36328-0.042969 0.69141 0.21484 0.73438 0.57812 0.011719 0.10547 0 0.20703-0.035156 0.30078zm-7.2656-16.18 6.3359-1.8477-3.6953 15.133-3.3125-1.5352 0.67578-11.75zm-2.0195 12.098c-0.023437 0.26953 0.12109 0.53906 0.38281 0.66016l3.957 1.8359-0.25781 1.0469-11.871-5.7266 0.36719-0.77734 5.8281 2.7031c0.33203 0.15234 0.72266 0.007812 0.875-0.32422 0.042969-0.089844 0.0625-0.18359 0.0625-0.27734l0.47656-10.602 0.85156-0.25-0.67188 11.707zm33.621-12.328 4.4766 18.332-8.3516-3.1992 3.875-15.137zm-4.8789 16.168 9.7383 3.7305 0.17188 0.69922-17.023-6.4727v-0.67969l5.0781 1.9453c0.33984 0.12891 0.72266-0.042969 0.85547-0.38281 0.011719-0.03125 0.019532-0.0625 0.027344-0.09375l4.0586-16.066 0.98828-0.33203-4.3164 16.863c-0.085938 0.33594 0.10156 0.67578 0.42188 0.78906zm26.48 4.5 0.74609 1.5703-11.234-7.7617c-0.070312-0.050781-0.14844-0.085938-0.23047-0.10547-0.015624-0.003906-0.03125-0.007812-0.046874-0.007812-0.019532-0.003907-0.042969-0.003907-0.0625-0.007813h-0.078126c-0.14844 0.007813-0.28906 0.066406-0.40234 0.17188l-0.011719 0.007812c-0.023438 0.023438-0.042969 0.046876-0.066406 0.070313l-4.3984 5.7031-0.14844-0.61328c0.007812-0.011719 0.015625-0.019531 0.023437-0.03125l9.5039-12.484 0.28516 0.60156-3.957 5.1289c-0.058594 0.078126-0.10156 0.16406-0.12109 0.25391-0.003906 0.015625-0.007813 0.03125-0.007813 0.046875-0.003906 0.019531-0.003906 0.042968-0.007812 0.0625v0.078125c0.007812 0.14844 0.066406 0.28906 0.17188 0.40234l0.007812 0.011719c0.023438 0.023438 0.046875 0.042969 0.070313 0.066407 0.011719 0.007812 0.023437 0.015624 0.035156 0.023437l9.7031 6.707c0.070312 0.046875 0.14453 0.082032 0.22266 0.097656zm-8.6094-7.5 3.1211-4.0469 4.3906 9.2383z"
        fill-rule="evenodd" />
      <text x="0.0" y="117.5" font-size="5.0" font-weight="bold"
        font-family="Arbeit Regular, Helvetica, Arial-Unicode, Arial, Sans-serif" fill="#000000">Created
        by Eskak</text>
      <text x="0.0" y="122.5" font-size="5.0" font-weight="bold"
        font-family="Arbeit Regular, Helvetica, Arial-Unicode, Arial, Sans-serif" fill="#000000">from
        Noun Project</text>
    </symbol>
    <!-- Icons go here -->
  </defs>
</svg>