<svg xmlns="http://www.w3.org/2000/svg" version="1.1" viewBox="-5.0 -10.0 110.0 135.0">
    <g>
        <path
            d="m29.008 47.039c2.1172 0 4.1055-1.0312 5.3242-2.7617l4.9648-7.0469c1.8008-2.5586 4.7461-4.0859 7.875-4.0859h5.6484c3.1289 0 6.0742 1.5273 7.875 4.0859l4.9648 7.0469c1.2188 1.7266 3.2109 2.7617 5.3242 2.7617 2.0078 0 3.8711-0.90234 5.1094-2.4766 1.2422-1.5742 1.6875-3.5977 1.2227-5.5469l-3.9492-16.52c-0.78125-3.2578-3.6641-5.5352-7.0156-5.5352h-32.719c-3.3516 0-6.2344 2.2773-7.0156 5.5352l-3.9492 16.52c-0.46875 1.9531-0.023438 3.9727 1.2227 5.5469 1.2422 1.5742 3.1055 2.4766 5.1094 2.4766zm36.984-22.789h1.5898c0.86328 0 1.5625 0.69922 1.5625 1.5625s-0.69922 1.5625-1.5625 1.5625h-1.5898c-0.86328 0-1.5625-0.69922-1.5625-1.5625s0.69922-1.5625 1.5625-1.5625zm-2.9766 2.9766c0.86328 0 1.5625 0.69922 1.5625 1.5625v1.5859c0 0.86328-0.69922 1.5625-1.5625 1.5625s-1.5625-0.69922-1.5625-1.5625v-1.5859c0-0.86328 0.69922-1.5625 1.5625-1.5625zm-4.5664-2.9766h1.5898c0.86328 0 1.5625 0.69922 1.5625 1.5625s-0.69922 1.5625-1.5625 1.5625h-1.5898c-0.86328 0-1.5625-0.69922-1.5625-1.5625s0.69922-1.5625 1.5625-1.5625zm-26.027 0h3v-3c0-0.86328 0.69922-1.5625 1.5625-1.5625s1.5625 0.69922 1.5625 1.5625v3h3.0039c0.86328 0 1.5625 0.69922 1.5625 1.5625s-0.69922 1.5625-1.5625 1.5625h-3.0039v3c0 0.86328-0.69922 1.5625-1.5625 1.5625s-1.5625-0.69922-1.5625-1.5625v-3h-3c-0.86328 0-1.5625-0.69922-1.5625-1.5625s0.69922-1.5625 1.5625-1.5625z" />
        <path
            d="m6.25 65.629h87.5v-8.5156l-87.5 0.003907v8.5156zm25.289-5.8164h2.6914c0.86328 0 1.5625 0.69922 1.5625 1.5625s-0.69922 1.5625-1.5625 1.5625h-2.6914c-0.86328 0-1.5625-0.69922-1.5625-1.5625s0.69922-1.5625 1.5625-1.5625zm-8.3906 0h2.6914c0.86328 0 1.5625 0.69922 1.5625 1.5625s-0.69922 1.5625-1.5625 1.5625h-2.6914c-0.86328 0-1.5625-0.69922-1.5625-1.5625s0.69922-1.5625 1.5625-1.5625zm-8.3906 0h2.6914c0.86328 0 1.5625 0.69922 1.5625 1.5625s-0.69922 1.5625-1.5625 1.5625h-2.6914c-0.86328 0-1.5625-0.69922-1.5625-1.5625s0.69922-1.5625 1.5625-1.5625z" />
        <path d="m6.25 83.039h87.5v-8.5117h-87.5z" />
        <path d="m9.25 68.754h81.5v2.6484h-81.5z" />
    </g>
    <text x="0.0" y="117.5" font-size="5.0" font-weight="bold"
        font-family="Arbeit Regular, Helvetica, Arial-Unicode, Arial, Sans-serif" fill="#000000">Created
        by Nur syifa fauziah</text>
    <text x="0.0" y="122.5" font-size="5.0" font-weight="bold"
        font-family="Arbeit Regular, Helvetica, Arial-Unicode, Arial, Sans-serif" fill="#000000">from
        Noun Project</text>
</svg>