<svg xmlns="http://www.w3.org/2000/svg">
  <defs>
    <symbol id="icon-foe" viewBox="0 0 64 80">
      <path
        d="m36.50977,60.5h-9.01953c-2.98389,0-5.88623-1.07227-8.17236-3.01758-1.33594-1.15039-2.64062-4.19531-4.479-8.70996-.80664-1.98047-1.7207-4.22461-2.18945-4.88184-2.06055-2.88477-3.14941-6.28125-3.14941-9.82031v-8.07031c0-5.81543,2.21045-11.33301,6.22412-15.53711.57275-.59961,1.52197-.62012,2.12061-.04883.59961.57227.62158,1.52148.04932,2.12109-3.47852,3.64258-5.39404,8.4248-5.39404,13.46484v8.07031c0,2.91016.896,5.7041,2.59082,8.07715.64062.89844,1.37744,2.67285,2.52637,5.49316,1.03662,2.54492,2.771,6.80371,3.65186,7.5625,1.7373,1.47949,3.94922,2.29688,6.22119,2.29688h9.01953c2.27246,0,4.4834-.81738,6.22754-2.30273.875-.75293,2.60938-5.0127,3.64648-7.55859,1.14844-2.81934,1.88477-4.59375,2.52539-5.49023,1.69531-2.37402,2.59082-5.16797,2.59082-8.07812v-8.07031c0-2.92578-.63086-5.7373-1.875-8.35645-.35547-.74805-.03711-1.64258.71094-1.99805.74902-.35449,1.64258-.03906,1.99805.71094,1.4375,3.02441,2.16602,6.26855,2.16602,9.64355v8.07031c0,3.53906-1.08887,6.93555-3.14941,9.82129-.46875.65625-1.38184,2.89941-2.18848,4.87891-1.83887,4.51562-3.14355,7.56055-4.47363,8.70605-2.29199,1.95117-5.19434,3.02344-8.17871,3.02344Z"
        style="" stroke-width="0px" />
      <path
        d="m32,52.5c-.44531,0-.86719-.19727-1.15234-.54004l-3.78564-4.54297-1.86182,2.4834c-.2915.38867-.74951.6416-1.2417.59863-.48682-.0127-.93652-.26172-1.20654-.66699l-3.41357-5.12012-4.37451,1.09277c-.80713.19727-1.61816-.28906-1.81885-1.0918-.20117-.80371.2876-1.61719,1.09131-1.81836l5.3999-1.34961c.6167-.15332,1.26074.0957,1.61182.62305l2.82422,4.23633,1.72754-2.30469c.27539-.36621.70312-.58691,1.16162-.59863.47021-.03809.89795.18652,1.19092.53906l3.84766,4.61719,3.84766-4.61719c.29297-.35254.74414-.5752,1.19043-.53906.45898.01172.88672.23242,1.16211.59863l1.72754,2.30469,2.82422-4.23633c.35059-.52832,1.00195-.77734,1.61133-.62305l5.40039,1.34961c.80371.20117,1.29297,1.01465,1.0918,1.81836-.2002.80371-1.01465,1.29102-1.81836,1.0918l-4.375-1.09277-3.41406,5.12012c-.26953.40527-.71973.6543-1.20605.66699-.51758.0332-.94922-.20996-1.24219-.59863l-1.86133-2.4834-3.78613,4.54297c-.28516.34277-.70703.54004-1.15234.54004Z"
        style="" stroke-width="0px" />
      <path
        d="m40.5957,36.0459c-2.69824,0-5.11914-1.58691-5.44141-1.80664-.68359-.4668-.86035-1.40039-.39355-2.08496.4668-.68359,1.39746-.85938,2.08105-.39551.74902.50488,3.05371,1.69238,4.72559,1.1416.89258-.29492,1.55273-1.08008,2.01855-2.39941.27441-.78223,1.13281-1.19238,1.91309-.91504.78125.27539,1.19141,1.13184.91504,1.91309-.78613,2.22949-2.10547,3.66016-3.91992,4.25488-.63281.20703-1.27344.29199-1.89844.29199Z"
        style="" stroke-width="0px" />
      <path
        d="m23.4043,36.0459c-.62549,0-1.26514-.08496-1.89795-.29199-1.81494-.59375-3.13428-2.02539-3.9209-4.25488-.27588-.78125.13428-1.6377.91553-1.91309.78174-.27637,1.63721.13379,1.91357.91504.4668,1.32324,1.12939,2.1084,2.02539,2.40137,1.6748.54785,4.0249-.66992,4.71436-1.1416.68408-.46484,1.61816-.29102,2.08447.39355.46729.68457.29102,1.61816-.39307,2.08496-.32275.21973-2.74268,1.80664-5.44141,1.80664Z"
        style="" stroke-width="0px" />
      <path
        d="m36.99805,40.5c-.71973,0-1.35547-.51953-1.47754-1.25293l-1-6c-.08008-.47852.07617-.96484.41895-1.30762l9-9c.58594-.58594,1.53516-.58594,2.12109,0l3,3c.58594.58594.58594,1.53516,0,2.12109s-1.53516.58594-2.12109,0l-1.93945-1.93945-7.39355,7.39355.87305,5.23828c.13672.81738-.41602,1.59082-1.23242,1.72656-.08398.01367-.16699.02051-.24902.02051Z"
        style="" stroke-width="0px" />
      <path
        d="m27.00195,40.5c-.08203,0-.16504-.00684-.24854-.02051-.81738-.13574-1.36914-.90918-1.23291-1.72656l.87305-5.23828-7.39355-7.39355-1.93945,1.93945c-.58594.58594-1.53516.58594-2.12109,0s-.58594-1.53516,0-2.12109l3-3c.58594-.58594,1.53516-.58594,2.12109,0l9,9c.34277.34277.49854.8291.41895,1.30762l-1,6c-.12207.7334-.75781,1.25293-1.47754,1.25293Z"
        style="" stroke-width="0px" />
      <path
        d="m32,27.49902c-.37305,0-.74561-.13867-1.03564-.41504l-15.17822-14.4873c-.28809-.27441-.45459-.65234-.46387-1.0498-.00928-.39844.13965-.7832.41455-1.07129,4.29492-4.49805,10.0708-6.97559,16.26318-6.97559s11.96777,2.47754,16.26367,6.97559c.27441.28809.42382.67285.41504,1.07129-.00977.39746-.17676.77539-.46387,1.0498l-15.17871,14.4873c-.29004.27637-.66309.41504-1.03613.41504Zm-13.01709-15.99805l13.01709,12.4248,13.01758-12.4248c-3.58594-3.23633-8.1543-5.00098-13.01758-5.00098-4.86377,0-9.43164,1.76465-13.01709,5.00098Z"
        style="" stroke-width="0px" />
      <path
        d="m32,19.5c-.37305,0-.74609-.13867-1.03564-.41504l-4.41064-4.20996c-.59912-.57227-.62158-1.52148-.04932-2.12109.57178-.59961,1.52197-.62012,2.12061-.04883l3.375,3.22168,3.37402-3.22168c.60059-.57227,1.54785-.5498,2.12109.04883.57227.59961.5498,1.54883-.04883,2.12109l-4.41016,4.20996c-.29004.27637-.66309.41504-1.03613.41504Z"
        style="" stroke-width="0px" />
      <text x="0" y="79" fill="#000000" font-size="5px" font-weight="bold"
        font-family="'Helvetica Neue', Helvetica, Arial-Unicode, Arial, Sans-serif">Created by Eklip
        Studio</text>
      <text x="0" y="84" fill="#000000" font-size="5px" font-weight="bold"
        font-family="'Helvetica Neue', Helvetica, Arial-Unicode, Arial, Sans-serif">from the Noun
        Project</text>
    </symbol>
    <!-- Icons go here -->
  </defs>
</svg>