<svg xmlns="http://www.w3.org/2000/svg">
  <defs>
    <symbol id="icon-movie" viewBox="0 0 64 80">
      <polygon points="21.029 20.78 14.704 22.24 14.704 25.817 19.396 24.735 21.029 20.78" />
      <path
        d="m23.329,20.25c0,.127-.023.256-.074.38l-1.468,3.553,8.301-1.916,1.636-3.955-8.395,1.937Z" />
      <polygon points="34.116 17.76 32.481 21.715 40.78 19.799 42.412 15.846 34.116 17.76" />
      <path d="m34.795,28.074c-.024.044-.034.093-.066.135l-2.675,3.495h8.742l2.778-3.63h-8.779Z" />
      <path d="m23.47,28.209l-2.675,3.495h8.742l2.778-3.63h-8.779c-.024.044-.034.093-.066.135Z" />
      <polygon points="30.185 43.752 35.394 41.148 30.185 38.544 30.185 43.752" />
      <polygon points="14.704 31.704 18.277 31.704 21.055 28.074 14.704 28.074 14.704 31.704" />
      <path
        d="m14.7,33.7v16.3h34.6v-16.3H14.7Zm23.38,8.34l-8.45,4.22c-.14.07-.29.11-.44.11-.19,0-.37-.05-.53-.15-.3-.18-.47-.5-.47-.85v-8.44c0-.35.17-.67.47-.85.29-.19.66-.2.97-.05l8.45,4.22c.34.17.55.52.55.9s-.21.72-.55.89Z" />
      <polygon points="43.172 19.247 49.296 17.834 49.296 14.257 44.804 15.294 43.172 19.247" />
      <path d="m45.988,28.209l-2.675,3.495h5.983v-3.63h-3.242c-.024.044-.034.093-.066.135Z" />
      <text x="0" y="79" fill="#000000" font-size="5px" font-weight="bold"
        font-family="'Helvetica Neue', Helvetica, Arial-Unicode, Arial, Sans-serif">Created by Ian
        Rahmadi Kurniawan</text>
      <text x="0" y="84" fill="#000000" font-size="5px" font-weight="bold"
        font-family="'Helvetica Neue', Helvetica, Arial-Unicode, Arial, Sans-serif">from the Noun
        Project</text>
    </symbol>
  </defs>
</svg>