<svg xmlns="http://www.w3.org/2000/svg">
    <defs>
        <symbol id="icon-video-game" viewBox="-5.0 -10.0 110.0 135.0">
            <path
                d="m72.223 44.445h-19.445v-2.7773c0-1.3906 1.3906-2.7773 2.7773-2.7773h9.7227c5.2773 0 9.7227-4.4453 9.7227-9.7227 0-5.2773-4.4453-9.7227-9.7227-9.7227h-29.168c-4.7227 0-8.332-3.8906-8.332-8.332v-2.7812c0-1.3906-1.3906-2.7773-2.7773-2.7773-1.3906 0-2.7773 1.3906-2.7773 2.7773v2.7773c0 7.7773 6.1094 13.891 13.891 13.891h29.168c2.2227 0 4.168 1.9453 4.168 4.168 0 2.2227-1.9453 4.168-4.168 4.168l-9.7266-0.003907c-4.7227 0-8.332 3.6094-8.332 8.332v2.7773h-19.445c-13.891 0-25 11.109-25 25s11.109 25 25 25h44.445c13.891 0 25-11.109 25-25 0-13.887-11.113-24.996-25-24.996zm8.332 27.777h-5.5547v5.5547c0 1.3906-1.3906 2.7773-2.7773 2.7773-1.3906 0-2.7773-1.3906-2.7773-2.7773v-5.5547h-5.5547c-1.3906 0-2.7773-1.3906-2.7773-2.7773 0-1.3906 1.3906-2.7773 2.7773-2.7773h5.5547v-5.5547c0-1.3906 1.3906-2.7773 2.7773-2.7773 1.3906 0 2.7773 1.3906 2.7773 2.7773v5.5547h5.5547c1.3906 0 2.7773 1.3906 2.7773 2.7773 0 1.3867-1.3867 2.7773-2.7773 2.7773zm-41.664-2.7773c0 1.3906-1.3906 2.7773-2.7773 2.7773h-2.7773c-1.3906 0-2.7773-1.3906-2.7773-2.7773 0-1.3906 1.3906-2.7773 2.7773-2.7773h2.7773c1.3867 0 2.7773 1.3867 2.7773 2.7773zm-8.3359-8.3359v2.7773c0 1.3906-1.3906 2.7773-2.7773 2.7773-1.3906 0-2.7773-1.3906-2.7773-2.7773v-2.7773c0-1.3906 1.3906-2.7773 2.7773-2.7773 1.3906 0 2.7773 1.3906 2.7773 2.7773zm-11.109 5.5586h2.7773c1.3906 0 2.7773 1.3906 2.7773 2.7773 0 1.3906-1.3906 2.7773-2.7773 2.7773h-2.7773c-1.3906 0-2.7773-1.3906-2.7773-2.7773 0-1.3906 1.3867-2.7773 2.7773-2.7773zm5.5547 11.109v-2.7773c0-1.3906 1.3906-2.7773 2.7773-2.7773 1.3906 0 2.7773 1.3906 2.7773 2.7773v2.7773c0 1.3906-1.3906 2.7773-2.7773 2.7773-1.3867 0-2.7773-1.3867-2.7773-2.7773z" />
            <text x="0.0" y="117.5" font-size="5.0" font-weight="bold"
                font-family="Arbeit Regular, Helvetica, Arial-Unicode, Arial, Sans-serif"
                fill="#000000">Created
                by Humam</text>
            <text x="0.0" y="122.5" font-size="5.0" font-weight="bold"
                font-family="Arbeit Regular, Helvetica, Arial-Unicode, Arial, Sans-serif"
                fill="#000000">from
                Noun Project</text>
        </symbol>
    </defs>
    <!-- Icons go here -->
</svg>